<svg xmlns="http://www.w3.org/2000/svg" width="1200" height="630" viewBox="0 0 1200 630" role="img" aria-labelledby="title desc">
  <title id="title">Uyren social share image</title>
  <desc id="desc">Uyren learning app for children with alphabet, numbers, animals, and playful lesson cards.</desc>
  <defs>
    <linearGradient id="bg" x1="0" y1="0" x2="1" y2="1">
      <stop offset="0" stop-color="#fffaf0"/>
      <stop offset=".52" stop-color="#eef8ff"/>
      <stop offset="1" stop-color="#f7fff5"/>
    </linearGradient>
    <filter id="softShadow" x="-20%" y="-20%" width="140%" height="140%">
      <feDropShadow dx="0" dy="18" stdDeviation="18" flood-color="#202b4c" flood-opacity=".14"/>
    </filter>
  </defs>

  <rect width="1200" height="630" fill="url(#bg)"/>
  <circle cx="126" cy="104" r="102" fill="#ffc857" fill-opacity=".28"/>
  <circle cx="1064" cy="94" r="128" fill="#4c9aff" fill-opacity=".18"/>
  <circle cx="1026" cy="538" r="164" fill="#31a66a" fill-opacity=".14"/>

  <g transform="translate(80 72)">
    <rect width="64" height="64" rx="18" fill="#fffdf7"/>
    <path d="M13 13h24c9 0 17 8 17 17v22H30c-9 0-17-8-17-17V13z" fill="#4c9aff"/>
    <path d="M25 13h12c9 0 17 8 17 17v5H42c-9 0-17-8-17-17v-5z" fill="#31a66a"/>
    <path d="M13 34h13c9 0 17 8 17 17v1H30c-9 0-17-8-17-17v-1z" fill="#ffc857"/>
    <path d="M21 20v16c0 7 5 12 11 12s11-5 11-12V20" fill="none" stroke="#172033" stroke-width="6" stroke-linecap="round"/>
    <circle cx="44" cy="15" r="6" fill="#d9487d"/>
    <text x="82" y="46" fill="#172033" font-family="Nunito, Inter, Arial, sans-serif" font-size="48" font-weight="900">Uyren</text>
  </g>

  <g transform="translate(80 178)">
    <text fill="#172033" font-family="Nunito, Inter, Arial, sans-serif" font-size="76" font-weight="900">
      <tspan x="0" y="0">Learn by playing</tspan>
      <tspan x="0" y="86">Tiny lessons</tspan>
      <tspan x="0" y="172">for curious kids</tspan>
    </text>
    <text x="2" y="234" fill="#172033" fill-opacity=".72" font-family="Inter, Arial, sans-serif" font-size="31" font-weight="800">
      Kazakh, English, and Russian for ages 3+.
    </text>
    <g transform="translate(0 278)">
      <rect width="122" height="52" rx="26" fill="#172033"/>
      <rect x="136" width="122" height="52" rx="26" fill="#ffffff" stroke="#172033" stroke-opacity=".1" stroke-width="3"/>
      <rect x="272" width="122" height="52" rx="26" fill="#ffffff" stroke="#172033" stroke-opacity=".1" stroke-width="3"/>
      <text x="61" y="35" text-anchor="middle" fill="#ffffff" font-family="Inter, Arial, sans-serif" font-size="20" font-weight="900">KAZ</text>
      <text x="197" y="35" text-anchor="middle" fill="#172033" font-family="Inter, Arial, sans-serif" font-size="20" font-weight="900">ENG</text>
      <text x="333" y="35" text-anchor="middle" fill="#172033" font-family="Inter, Arial, sans-serif" font-size="20" font-weight="900">RUS</text>
    </g>
  </g>

  <g transform="translate(720 92)" filter="url(#softShadow)">
    <rect width="390" height="456" rx="36" fill="#ffffff" stroke="#172033" stroke-opacity=".08" stroke-width="4"/>
    <text x="42" y="70" fill="#172033" font-family="Nunito, Inter, Arial, sans-serif" font-size="32" font-weight="900">Start learning</text>
    <text x="42" y="108" fill="#172033" fill-opacity=".58" font-family="Inter, Arial, sans-serif" font-size="20" font-weight="800">Pick a playful lesson</text>

    <g transform="translate(42 146)">
      <rect width="138" height="122" rx="24" fill="#fffaf0" stroke="#172033" stroke-opacity=".08" stroke-width="3"/>
      <text x="69" y="81" text-anchor="middle" fill="#d9487d" font-family="Nunito, Inter, Arial, sans-serif" font-size="70" font-weight="900">A</text>

      <rect x="170" width="138" height="122" rx="24" fill="#eef8ff" stroke="#172033" stroke-opacity=".08" stroke-width="3"/>
      <text x="239" y="76" text-anchor="middle" fill="#4c9aff" font-family="Nunito, Inter, Arial, sans-serif" font-size="54" font-weight="900">123</text>
    </g>

    <g transform="translate(42 294)">
      <rect width="138" height="122" rx="24" fill="#f7fff5" stroke="#172033" stroke-opacity=".08" stroke-width="3"/>
      <text x="69" y="74" text-anchor="middle" fill="#31a66a" font-family="Nunito, Inter, Arial, sans-serif" font-size="43" font-weight="900">CAT</text>

      <rect x="170" width="138" height="122" rx="24" fill="#fffaf0" stroke="#172033" stroke-opacity=".08" stroke-width="3"/>
      <text x="239" y="76" text-anchor="middle" fill="#a36a00" font-family="Nunito, Inter, Arial, sans-serif" font-size="43" font-weight="900">MATH</text>
    </g>
  </g>
</svg>
