<svg xmlns="http://www.w3.org/2000/svg" viewBox="0 0 640 420" role="img" aria-labelledby="title">
  <title id="title">Chess board and pieces</title>
  <rect width="640" height="420" rx="32" fill="#fff9e8"/>
  <rect x="110" y="100" width="420" height="220" rx="24" fill="#ffffff" stroke="#172033" stroke-opacity=".12" stroke-width="6"/>
  <g transform="translate(140 130)">
    <rect width="60" height="60" fill="#ffc857"/>
    <rect x="60" width="60" height="60" fill="#172033" opacity=".78"/>
    <rect x="120" width="60" height="60" fill="#ffc857"/>
    <rect x="180" width="60" height="60" fill="#172033" opacity=".78"/>
    <rect x="240" width="60" height="60" fill="#ffc857"/>
    <rect y="60" width="60" height="60" fill="#172033" opacity=".78"/>
    <rect x="60" y="60" width="60" height="60" fill="#ffc857"/>
    <rect x="120" y="60" width="60" height="60" fill="#172033" opacity=".78"/>
    <rect x="180" y="60" width="60" height="60" fill="#ffc857"/>
    <rect x="240" y="60" width="60" height="60" fill="#172033" opacity=".78"/>
  </g>
  <path d="M296 86h48l-12 38h-24z" fill="#4c9aff"/>
  <path d="M276 154c0-26 19-48 44-48s44 22 44 48c0 22-12 40-28 48l18 52h-68l18-52c-16-8-28-26-28-48z" fill="#ffffff" stroke="#4c9aff" stroke-width="10" stroke-linejoin="round"/>
  <path d="M258 272h124" stroke="#4c9aff" stroke-width="18" stroke-linecap="round"/>
  <circle cx="462" cy="274" r="26" fill="#d9487d"/>
  <path d="M462 190v60" stroke="#d9487d" stroke-width="18" stroke-linecap="round"/>
  <path d="M434 190h56" stroke="#d9487d" stroke-width="18" stroke-linecap="round"/>
</svg>
