<svg xmlns="http://www.w3.org/2000/svg" viewBox="0 0 360 96" role="img" aria-labelledby="title">
  <title id="title">Uyren logo</title>
  <g>
    <rect x="4" y="4" width="88" height="88" rx="24" fill="#fffdf7"/>
    <path d="M22 22h33c13 0 23 10 23 23v29H45c-13 0-23-10-23-23V22z" fill="#4c9aff"/>
    <path d="M38 22h17c13 0 23 10 23 23v7H61c-13 0-23-10-23-23v-7z" fill="#31a66a"/>
    <path d="M22 50h18c13 0 23 10 23 23v1H45c-13 0-23-10-23-23v-1z" fill="#ffc857"/>
    <path d="M33 30v22c0 10 7 17 16 17s16-7 16-17V30" fill="none" stroke="#172033" stroke-width="8" stroke-linecap="round"/>
    <circle cx="66" cy="24" r="9" fill="#d9487d"/>
    <path d="M27 79c12-6 30-6 42 0" fill="none" stroke="#172033" stroke-opacity=".18" stroke-width="5" stroke-linecap="round"/>
  </g>
  <text x="110" y="66" fill="#172033" font-family="Nunito, Inter, Arial, sans-serif" font-size="56" font-weight="900">Uyren</text>
</svg>
